<svg width="1800" height="520" viewBox="0 0 1800 520" fill="none" xmlns="http://www.w3.org/2000/svg">
  <path d="M92 352C48 331 26 288 39 245c14-50 63-80 116-70 25-72 94-122 175-122 36 0 69 10 98 28 39-37 101-46 150-17 42 24 63 73 52 121 58 6 103 55 103 114 0 64-52 116-116 116H163c-30 0-55-12-71-63Z" fill="#FFF9EE" stroke="#C9A0DF" stroke-width="15" stroke-linecap="round" stroke-linejoin="round"/>
  <path d="M186 212h222c20 0 36 16 36 36v127c0 49-40 89-89 89h-83c-49 0-89-40-89-89V215c0-2 1-3 3-3Z" fill="#FFF1CF" stroke="#7362A2" stroke-width="10"/>
  <path d="M231 214c10-69 44-109 97-109 55 0 90 42 99 109" stroke="#7362A2" stroke-width="19" stroke-linecap="round"/>
  <path d="M269 244h127l-18 93h-87l-22-93Z" fill="#78D2CB" stroke="#7362A2" stroke-width="8" stroke-linejoin="round"/>
  <path d="M147 385c47 0 85-38 85-85s-38-85-85-85-85 38-85 85 38 85 85 85Z" fill="#F6F1FF" stroke="#7362A2" stroke-width="14"/>
  <path d="M147 350c28 0 50-22 50-50s-22-50-50-50-50 22-50 50 22 50 50 50Z" fill="white"/>
  <path d="M202 357l62 62" stroke="#7362A2" stroke-width="22" stroke-linecap="round"/>
  <path d="M270 453l-33-33" stroke="#7362A2" stroke-width="31" stroke-linecap="round"/>
  <path d="M146 278c13-21 45-14 45 13 0 25-45 51-45 51s-45-26-45-51c0-27 32-34 45-13Z" fill="#FF7184"/>
  <path d="M83 112l17 35 39 6-28 27 7 39-35-18-35 18 7-39-28-27 39-6 17-35Z" fill="#78D2CB" stroke="#63B8B3" stroke-width="7" stroke-linejoin="round"/>
  <path d="M581 93l17 35 38 5-28 28 7 38-34-18-34 18 7-38-28-28 38-5 17-35Z" fill="#7362A2"/>
  <path d="M969 93c19-33 68-22 68 19 0 39-68 78-68 78s-68-39-68-78c0-41 49-52 68-19Z" fill="#FF7184"/>
  <path d="M1666 250l23 46 51 8-37 36 9 51-46-24-46 24 9-51-37-36 51-8 23-46Z" fill="#FFDD57" stroke="#E78BA9" stroke-width="10" stroke-linejoin="round"/>
  <path d="M1722 126l14 29 32 4-23 23 5 32-28-15-28 15 5-32-23-23 32-4 14-29Z" fill="#7362A2"/>
  <text x="555" y="346" font-family="'Arial Rounded MT Bold','Pretendard','Noto Sans KR',sans-serif" font-size="250" font-weight="900" letter-spacing="-10">
    <tspan fill="#B983DC" stroke="#8E6BB6" stroke-width="10" paint-order="stroke">세</tspan>
    <tspan x="815" fill="#FF7184" stroke="#D76078" stroke-width="10" paint-order="stroke">모</tspan>
    <tspan x="1085" fill="#65CFC6" stroke="#529F9B" stroke-width="10" paint-order="stroke">덕</tspan>
  </text>
</svg>
